<svg xmlns="http://www.w3.org/2000/svg" viewBox="0 0 538.31 441.03"><defs><style>.cls-1{fill:none;stroke:#231f20;stroke-miterlimit:10;}</style></defs><g id="Layer_2" data-name="Layer 2"><g id="Layer_2-2" data-name="Layer 2"><polygon class="cls-1" points="260.69 91.69 112.69 70.05 142.69 181.69 260.69 254.69 265.69 321.69 177.69 334.65 108.47 306.69 108.48 324.12 93.69 255.69 112.69 299.69 174.69 327.69 250.69 283.69 137.69 186.69 84.69 99.69 240.69 95.69 253.69 127.69 260.69 91.69"/><path class="cls-1" d="M218,14.69s48.92,46.57,43,77l-5.92,30.43S303,93.69,218,14.69Z"/><path class="cls-1" d="M162,97.72l-31.91,36Z"/><polygon class="cls-1" points="105.71 134.19 62.97 134.19 137.97 187.15 105.71 134.19"/><path class="cls-1" d="M122.08,103.93l-16.37,29.81Z"/><path class="cls-1" d="M100.47,289.69s-5.5,65-37.5,108l-32,43s70.57-77.14,77.79-116.57S146,260.69,146,260.69Z"/><polygon class="cls-1" points="156.47 202.19 176.47 202.19 176.47 219.49 215.47 226.48 215.47 253.19 260.51 254.53 197.94 202.19 156.47 180.53 156.47 202.19"/><path class="cls-1" d="M229.47,265.54v0Z"/><polygon class="cls-1" points="265.85 321.69 208.47 308.23 208.47 330.14 265.85 321.69"/><path class="cls-1" d="M108.76,324.12,85,350.69Z"/><path class="cls-1" d="M100.47,289.69s-32.65-59.51-73.5-35c-10,6-24,14.54-24,14.54s58.22-14,82,20.46l23.79,34.43Z"/><polygon class="cls-1" points="156.21 180.69 130.09 133.74 122.08 157.21 156.21 180.69"/><polygon class="cls-1" points="241.45 95.69 162.47 55.69 162.47 97.72 241.45 95.69"/><path class="cls-1" d="M268.51,14.69s29.46,30,23.46,75,7,91,7,91-9-92,9-93,71,1,71,1,.22,3.28.55,9c2.09,35.47,8.92,164.85-.55,195-11,35-38,60-81,63s-114,0-114,0l170,11s15-18,59-16,113,0,113,0-126,1.86-130-26.57-6-235.43,3-235.43,55-5,68,2-7,64,11,79,43,32.66,43,32.66-47-34.79-40-80.23,3-93.43,29-107.43l26-14s-37,3-79,55c-36.31,45-100.7,32.36-139.09,6.14A107,107,0,0,1,302,48.69Z"/><polygon class="cls-1" points="405.47 110.11 364.42 134.19 405.47 134.19 364.42 167.19 405.47 167.19 364.42 202.9 405.47 274.33 354.4 367.46 397.62 335.37 413.48 351.44 433.65 344.71 394.03 330.86 341.38 344.43 354.4 367.46 362.91 324.83 387.52 302.37 382.88 271.37 406.47 202.9 405.47 110.11"/><polyline class="cls-1" points="363.97 202.19 406.47 202.19 405.47 109.27 379.4 88.21 319.23 97.26 318.13 61.27 292.64 69.52 308.19 87.21 292.64 97.26 298.94 103.5 341.29 76.19 433.69 76.19 405.47 109.27 400.45 76.19 452.12 61.27 485.84 84.21 475.78 35.15 467.64 90.22 485.84 155.8 474.09 163.24 459.03 87.69 452.12 61.27 484 103.5"/></g></g></svg>